<svg xmlns="http://www.w3.org/2000/svg" width="655.359" height="655.359" fill-rule="evenodd" clip-rule="evenodd" image-rendering="optimizeQuality" shape-rendering="geometricPrecision" text-rendering="geometricPrecision" viewBox="0 0 6.827 6.827"><path fill="#78909c" d="M1.58279 2.28038c0,0.00869685 0.00011811,0.0173898 0.00034252,0.0260827 -0.186713,0.041 -0.356126,0.139154 -0.485567,0.280421 -0.157433,0.171819 -0.244236,0.394299 -0.244236,0.627421 0,0.247315 0.0973898,0.482386 0.272244,0.657236 0.174846,0.174854 0.409921,0.272244 0.65724,0.272244l3.26103 0c0.247315,0 0.482394,-0.0973898 0.65724,-0.272244 0.174854,-0.17485 0.272248,-0.409921 0.272248,-0.657236 0,-0.225776 -0.0813386,-0.441799 -0.229992,-0.611654 -0.13163,-0.150413 -0.307961,-0.25463 -0.503091,-0.296681 -0.0847323,-0.205811 -0.226465,-0.384098 -0.407535,-0.513661 -0.201437,-0.14413 -0.440858,-0.220752 -0.688547,-0.220752 -0.0833346,0 -0.166488,0.00879134 -0.247992,0.0261732 -0.0455984,0.00972441 -0.0905945,0.022189 -0.134697,0.0372717 -0.0976496,-0.150106 -0.228394,-0.276768 -0.381843,-0.369492 -0.185059,-0.111823 -0.395646,-0.170134 -0.611835,-0.170134 -0.315319,0 -0.614996,0.124157 -0.837925,0.347091 -0.222925,0.222925 -0.347083,0.522598 -0.347083,0.837913z"/><path fill="#1e88e5" d="M2.50089 4.43199c-.0575197.107657-.228543.428157 0 .455063.00139764-.000165354.00277559-.000338583.00414173-.000523622.222307-.0302913.0530236-.347535-.00414173-.454539zM3.71748 4.43199c-.0575157.107657-.228539.428157 0 .455063.00139764-.000165354.00277953-.000338583.00414567-.000523622.222307-.0302913.0530236-.347535-.00414567-.454539zM4.93408 4.43199c-.0575157.107657-.228539.428157 0 .455063.00139764-.000165354.00277559-.000338583.00414567-.000523622.222307-.0302913.0530197-.347535-.00414567-.454539zM3.11579 5.27623c-.0575197.107657-.228543.428154 0 .455063.00139764-.000165354.00277559-.00034252.00414173-.000527559.222307-.0302874.0530236-.347535-.00414173-.454535zM4.31947 5.27623c-.0575157.107657-.228539.428154 0 .455063.00139764-.000165354.00277559-.00034252.00414567-.000527559.222307-.0302874.0530236-.347535-.00414567-.454535zM1.89259 4.43199c-.0575157.107657-.228539.428157 0 .455063.00139764-.000165354.00277559-.000338583.00414567-.000523622.222307-.0302913.0530197-.347535-.00414567-.454539zM3.10919 4.43199c-.0575197.107657-.228543.428157 0 .455063.00139764-.000165354.00277559-.000338583.00414567-.000523622.222303-.0302913.0530197-.347535-.00414567-.454539zM4.32578 4.43199c-.0575157.107657-.228539.428157 0 .455063.00139764-.000165354.00277953-.000338583.00414567-.000523622.222307-.0302913.0530236-.347535-.00414567-.454539zM2.51394 5.27623c-.0575157.107657-.228543.428154 0 .455063.00139764-.000165354.00277559-.00034252.00414567-.000527559.222307-.0302874.0530197-.347535-.00414567-.454535zM3.71763 5.27623c-.0575197.107657-.228543.428154 0 .455063.00139764-.000165354.00277559-.00034252.00414173-.000527559.222307-.0302874.0530236-.347535-.00414173-.454535z"/><rect width="6.827" height="6.827" fill="none"/></svg>