<svg xmlns="http://www.w3.org/2000/svg" data-name="Flat design" viewBox="0 0 64 64"><path fill="#eeeef1" d="M49,21.78h-.07A13.37,13.37,0,0,0,49,20.36,14.15,14.15,0,0,0,21.17,16.7a9.91,9.91,0,1,0-3.33,19.24H49a7.08,7.08,0,0,0,0-14.16Z"/><path fill="#e3e2e7" d="M39.19,29.57a24.79,24.79,0,0,1-22-13.42,9.91,9.91,0,0,0,.67,19.79H49a7.09,7.09,0,0,0,7-6.37Z"/><ellipse cx="38.86" cy="12.82" fill="#f5f5f6" rx="2.28" ry="2.96" transform="rotate(-45.13 38.866 12.82)"/><ellipse cx="43.38" cy="17.32" fill="#f5f5f6" rx="1.58" ry="2.05" transform="rotate(-45.13 43.374 17.318)"/><path fill="#83c2d9" d="M13.45 43.62a1 1 0 0 0-1.26.63l-1.53 4.59a1 1 0 0 0 .63 1.26.89.89 0 0 0 .32 0 1 1 0 0 0 1-.68l1.53-4.59A1 1 0 0 0 13.45 43.62zM20.08 51.26a1 1 0 0 0-1.26.64l-1.53 4.58a1 1 0 0 0 .63 1.27 1.13 1.13 0 0 0 .32 0 1 1 0 0 0 .94-.68l1.53-4.59A1 1 0 0 0 20.08 51.26zM38.43 51.26a1 1 0 0 0-1.26.64l-1.53 4.58a1 1 0 0 0 .63 1.27 1.19 1.19 0 0 0 .32 0 1 1 0 0 0 .95-.68l1.53-4.59A1 1 0 0 0 38.43 51.26zM24.67 37.5a1 1 0 0 0-1.27.63l-1.52 4.59A1 1 0 0 0 22.51 44a.85.85 0 0 0 .31.06 1 1 0 0 0 .95-.69l1.53-4.59A1 1 0 0 0 24.67 37.5zM43 37.5a1 1 0 0 0-1.26.63l-1.53 4.59A1 1 0 0 0 40.86 44a.87.87 0 0 0 .32.06 1 1 0 0 0 .94-.69l1.53-4.59A1 1 0 0 0 43 37.5zM31.81 43.62a1 1 0 0 0-1.27.63L29 48.84a1 1 0 0 0 .63 1.26.93.93 0 0 0 .32 0 1 1 0 0 0 .95-.68l1.53-4.59A1 1 0 0 0 31.81 43.62zM50.16 43.62a1 1 0 0 0-1.27.63l-1.52 4.59A1 1 0 0 0 48 50.1a.84.84 0 0 0 .31 0 1 1 0 0 0 .95-.68l1.53-4.59A1 1 0 0 0 50.16 43.62z"/></svg>