<svg xmlns="http://www.w3.org/2000/svg" viewBox="0 0 512 512"><g data-name="45. Snowfall"><path fill="#c1fefa" d="M81.99 441.48a24.628 24.628 0 0 0-22.427 34.679C70.27 499.968 106.6 492.716 106.6 466.08A24.66 24.66 0 0 0 81.99 441.48zM159.4 470.08a24.628 24.628 0 0 0 24.6 24.6c21.9 0 32.819-26.581 17.354-42.042C185.893 437.283 159.4 448.214 159.4 470.08zM269.708 444.77c-21.767 12.55-12.717 45.917 12.329 45.917a24.6 24.6 0 1 0-12.329-45.917zM373 439.47a24.605 24.605 0 1 0 24.6 24.6A24.631 24.631 0 0 0 373 439.47z"/><path fill="#6ff3fa" d="M95.379 428.565a16 16 0 0 1-7.944-21.186l10-22a16 16 0 0 1 29.13 13.242l-10 22A16 16 0 0 1 95.379 428.565zM195.379 428.565a16 16 0 0 1-7.944-21.186l10-22a16 16 0 0 1 29.13 13.242l-10 22A16 16 0 0 1 195.379 428.565zM295.379 426.565a16 16 0 0 1-7.944-21.186l10-22a16 16 0 0 1 29.13 13.242l-10 22A16 16 0 0 1 295.379 426.565zM385.379 426.565a16 16 0 0 1-7.944-21.186l10-22a16 16 0 0 1 29.13 13.242l-10 22A16 16 0 0 1 385.379 426.565z"/><path fill="#83f8fb" d="M488,232.894C487.786,294.518,436.914,344,375.29,344H110.573C63.429,344,24.352,306.292,24,259.149A85.5,85.5,0,0,1,109.5,173a13.34,13.34,0,0,0,13.419-14.989C115.025,94.461,166.05,35,233.5,35a111.535,111.535,0,0,1,106.032,76.925,15.9,15.9,0,0,0,17.8,10.717C426.036,110.738,488.238,163.8,488,232.894Z"/><path fill="#bbfbff" d="M482.394,197.726c2.672,8.092-8.273,13.5-13.2,6.54a130.784,130.784,0,0,0-125.957-53.828,23.257,23.257,0,0,1-25.234-15.381A130.931,130.931,0,0,0,220.137,50.7c-8.306-1.635-7.95-13.732.459-14.7A111.549,111.549,0,0,1,338.582,109.3a19.855,19.855,0,0,0,21.532,13.121A111.53,111.53,0,0,1,482.394,197.726Z"/><path fill="#6ff3fa" d="M387.535,343.652s13.593.535-277.975.535c-59,0-99.183-58.188-81.343-111.7,12.354-37.064,47.048-59.24,79.529-59.24a15.333,15.333,0,0,0,15-17,105.814,105.814,0,0,1,5.723-46.866c5.47-15.394,28.5-7.84,24.2,7.92-2,7.319-2.288,11.855-4.525,25.08-3.969,23.467,9.262,32.683,3.292,43.424-7.265,13.07-28.811,2.329-46.592,15.427-19.057,14.038-26.3,49.937-12.425,74.651,15.036,26.786,49.115,30.26,66.633,31.931l226.773.025C408.619,307.845,410.21,341.391,387.535,343.652Z"/></g></svg>