<svg xmlns="http://www.w3.org/2000/svg" data-name="Layer 1" viewBox="0 0 64 64"><circle cx="17" cy="7" r="2" fill="#c4fff9"/><path fill="#c4fff9" d="M4 20a1 1 0 0 1-1-1V17a1 1 0 0 1 2 0v2A1 1 0 0 1 4 20zM20 24a1 1 0 0 1-1-1V21a1 1 0 0 1 2 0v2A1 1 0 0 1 20 24z"/><circle cx="55" cy="45" r="2" fill="#c4fff9"/><path fill="#c4fff9" d="M42 58a1 1 0 0 1-1-1V55a1 1 0 0 1 2 0v2A1 1 0 0 1 42 58zM58 62a1 1 0 0 1-1-1V59a1 1 0 0 1 2 0v2A1 1 0 0 1 58 62z"/><circle cx="18" cy="46" r="3" fill="#9ceaef"/><path fill="#c4fff9" d="M34,46a1,1,0,0,0-1-1H31.414l2.293-2.293a1,1,0,0,0-1.414-1.414L28.586,45H21.858a3.915,3.915,0,0,0-.425-1.019l1.931-1.931h5.242a1,1,0,1,0,0-2H25.364l1.121-1.121a1,1,0,0,0-1.414-1.414L23.95,38.636V35.394a1,1,0,0,0-2,0v5.242l-1.931,1.931A3.915,3.915,0,0,0,19,42.142V35.414l3.707-3.707a1,1,0,0,0-1.414-1.414L19,32.586V31a1,1,0,0,0-2,0v1.586l-2.293-2.293a1,1,0,0,0-1.414,1.414L17,35.414v6.728a3.915,3.915,0,0,0-1.019.425L14.05,40.636V35.394a1,1,0,0,0-2,0v3.242l-1.121-1.121a1,1,0,0,0-1.414,1.414l1.121,1.121H7.394a1,1,0,1,0,0,2h5.242l1.931,1.931A3.915,3.915,0,0,0,14.142,45H7.414L3.707,41.293a1,1,0,0,0-1.414,1.414L4.586,45H3a1,1,0,0,0,0,2H4.586L2.293,49.293a1,1,0,1,0,1.414,1.414L7.414,47h6.728a3.915,3.915,0,0,0,.425,1.019L12.636,49.95H7.394a1,1,0,1,0,0,2h3.242L9.515,53.071a1,1,0,1,0,1.414,1.414l1.121-1.121v3.242a1,1,0,0,0,2,0V51.364l1.931-1.931A3.915,3.915,0,0,0,17,49.858v6.728l-3.707,3.707a1,1,0,0,0,1.414,1.414L17,59.414V61a1,1,0,0,0,2,0V59.414l2.293,2.293a1,1,0,0,0,1.414-1.414L19,56.586V49.858a3.915,3.915,0,0,0,1.019-.425l1.931,1.931v5.242a1,1,0,0,0,2,0V53.364l1.121,1.121a1,1,0,0,0,1.414-1.414L25.364,51.95h3.242a1,1,0,1,0,0-2H23.364l-1.931-1.931A3.915,3.915,0,0,0,21.858,47h6.728l3.707,3.707a1,1,0,0,0,1.414-1.414L31.414,47H33A1,1,0,0,0,34,46ZM18,48a2,2,0,1,1,2-2A2,2,0,0,1,18,48Z"/><circle cx="46" cy="18" r="3" fill="#9ceaef"/><path fill="#c4fff9" d="M62,18a1,1,0,0,0-1-1H59.414l2.293-2.293a1,1,0,0,0-1.414-1.414L56.586,17H49.858a3.915,3.915,0,0,0-.425-1.019l1.931-1.931h5.242a1,1,0,0,0,0-2H53.364l1.121-1.121a1,1,0,0,0-1.414-1.414L51.95,10.636V7.394a1,1,0,1,0-2,0v5.242l-1.931,1.931A3.915,3.915,0,0,0,47,14.142V7.414l3.707-3.707a1,1,0,1,0-1.414-1.414L47,4.586V3a1,1,0,0,0-2,0V4.586L42.707,2.293a1,1,0,0,0-1.414,1.414L45,7.414v6.728a3.915,3.915,0,0,0-1.019.425L42.05,12.636V7.394a1,1,0,1,0-2,0v3.242L38.929,9.515a1,1,0,0,0-1.414,1.414l1.121,1.121H35.394a1,1,0,0,0,0,2h5.242l1.931,1.931A3.915,3.915,0,0,0,42.142,17H35.414l-3.707-3.707a1,1,0,0,0-1.414,1.414L32.586,17H31a1,1,0,0,0,0,2h1.586l-2.293,2.293a1,1,0,1,0,1.414,1.414L35.414,19h6.728a3.915,3.915,0,0,0,.425,1.019L40.636,21.95H35.394a1,1,0,0,0,0,2h3.242l-1.121,1.121a1,1,0,1,0,1.414,1.414l1.121-1.121v3.242a1,1,0,1,0,2,0V23.364l1.931-1.931A3.915,3.915,0,0,0,45,21.858v6.728l-3.707,3.707a1,1,0,0,0,1.414,1.414L45,31.414V33a1,1,0,0,0,2,0V31.414l2.293,2.293a1,1,0,0,0,1.414-1.414L47,28.586V21.858a3.915,3.915,0,0,0,1.019-.425l1.931,1.931v5.242a1,1,0,1,0,2,0V25.364l1.121,1.121a1,1,0,0,0,1.414-1.414L53.364,23.95h3.242a1,1,0,0,0,0-2H51.364l-1.931-1.931A3.915,3.915,0,0,0,49.858,19h6.728l3.707,3.707a1,1,0,0,0,1.414-1.414L59.414,19H61A1,1,0,0,0,62,18ZM46,20a2,2,0,1,1,2-2A2,2,0,0,1,46,20Z"/></svg>