<svg xmlns="http://www.w3.org/2000/svg" viewBox="0 0 64 64"><g fill="#3EBBDD"><path d="M51.03 10H14a1 1 0 010-2h37.03C52.116 8 53 7.116 53 6.03 53 4.884 52.116 4 51.03 4 49.884 4 49 4.884 49 5.97c0 .552-.448 1.015-1 1.015S47 6.552 47 6c0-2.219 1.781-4 3.97-4C53.219 2 55 3.781 55 5.97 55 8.219 53.219 10 51.03 10zM45 16H8a1 1 0 010-2h37a1 1 0 010 2zM43 22h-8a1 1 0 010-2h8a1 1 0 010 2zM31 22h-2a1 1 0 010-2h2a1 1 0 010 2zM25 22H15a1 1 0 010-2h10a1 1 0 010 2zM35 28H11a1 1 0 010-2h24a1 1 0 010 2zM42 34H22a1 1 0 010-2h20a1 1 0 010 2zM40 40H13.98A2.984 2.984 0 0111 37.02c0-1.683 1.337-3.02 2.98-3.02H15a1 1 0 010 2h-1.02a.98.98 0 00-.98.98c0 .581.439 1.02.98 1.02H40a1 1 0 010 2zM40 46H28a1 1 0 010-2h12a1 1 0 010 2zM43 52h-8a1 1 0 010-2h8a1 1 0 010 2zM39 58h-4a1 1 0 010-2h4a1 1 0 010 2zM35 62h-2a1 1 0 010-2h2a1 1 0 010 2z"/></g></svg>