<svg xmlns="http://www.w3.org/2000/svg" data-name="Layer 1" viewBox="0 0 512 512"><g data-name="&lt;Group&gt;"><g data-name="&lt;Group&gt;"><path fill="#ed664c" d="M213.76,466.49a8,8,0,0,1-8-8V414.92a40.9,40.9,0,0,1,40.85-40.85h104.2a24.86,24.86,0,1,0,0-49.72H151.8a40.855,40.855,0,0,1,0-81.71H388.36a24.855,24.855,0,1,0,0-49.71H104.86a40.855,40.855,0,0,1,0-81.71H444.68a24.855,24.855,0,1,0,0-49.71H34.46a8,8,0,0,1,0-16H444.68a40.855,40.855,0,1,1,0,81.71H104.86a24.855,24.855,0,1,0,0,49.71h283.5a40.855,40.855,0,1,1,0,81.71H151.8a24.855,24.855,0,1,0,0,49.71H350.81a40.86,40.86,0,1,1,0,81.72H246.61a24.878,24.878,0,0,0-24.85,24.85v43.57A8,8,0,0,1,213.76,466.49Z" data-name="&lt;Path&gt;"/></g><g data-name="&lt;Group&gt;"><path fill="#ed664c" d="M397,94H82a8,8,0,0,1,0-16H397a8,8,0,0,1,0,16Z" data-name="&lt;Path&gt;"/></g><g data-name="&lt;Group&gt;"><path fill="#ed664c" d="M372,159H152a8,8,0,0,1,0-16H372a8,8,0,0,1,0,16Z" data-name="&lt;Path&gt;"/></g><g data-name="&lt;Group&gt;"><path fill="#ed664c" d="M341,227H159a8,8,0,0,1,0-16H341a8,8,0,0,1,0,16Z" data-name="&lt;Path&gt;"/></g><g data-name="&lt;Group&gt;"><path fill="#ed664c" d="M341,293H199a8,8,0,0,1,0-16H341a8,8,0,0,1,0,16Z" data-name="&lt;Path&gt;"/></g><g data-name="&lt;Group&gt;"><path fill="#ed664c" d="M301,359H230a8,8,0,0,1,0-16h71a8,8,0,0,1,0,16Z" data-name="&lt;Path&gt;"/></g></g></svg>