<svg width="512" height="512" xmlns="http://www.w3.org/2000/svg">

 <g>
  <title>background</title>
  <rect fill="none" id="canvas_background" height="402" width="582" y="-1" x="-1"/>
 </g>
 <g>
  <title>Layer 1</title>
  <path id="svg_1" fill="#D8EAEF" d="m349.57,250.045c-5.997,-62.967 -61.931,-112.316 -130.038,-112.316c-72.114,0 -130.567,55.304 -130.567,123.543c0,6.617 0.551,13.117 1.61,19.445l0,0c-45.345,5.346 -80.561,44.913 -80.561,92.914c0,51.638 40.775,93.513 91.075,93.513l333.857,0c36.605,0 66.261,-26.481 66.261,-59.162c0,-29.539 -24.246,-54.032 -55.944,-58.448l0,0c0,-51.656 -40.582,-99.616 -90.882,-99.616c-1.613,-0.001 -3.229,0.043 -4.811,0.127"/>
  <path id="svg_2" fill="#FFFFFF" d="m300.706,250.045c-5.135,-62.967 -52.467,-113.32 -110.625,-109.161c-36.581,2.616 -101.115,52.148 -101.115,120.387c0,6.617 1.61,19.445 1.61,19.445c-42.076,3.784 -80.561,44.914 -80.561,92.915c0,51.638 34.907,93.513 77.968,93.513l285.811,0c31.34,0 56.727,-26.481 56.727,-59.162c0,-29.539 -20.756,-54.032 -47.893,-58.448l0,0c0,-51.656 -34.743,-99.616 -77.805,-99.616c-1.381,-0.001 -2.763,0.043 -4.117,0.127c-22.808,1.433 -43.016,14.604 -56.507,34.575"/>
  <path id="svg_3" stroke-width="13" stroke-miterlimit="10" stroke-linejoin="round" stroke-linecap="round" stroke="#354F65" fill="none" d="m349.57,250.045c-5.997,-62.967 -61.931,-112.316 -130.038,-112.316c-72.114,0 -130.567,55.304 -130.567,123.543c0,6.617 0.551,13.117 1.61,19.445l0,0c-45.345,5.346 -80.561,44.913 -80.561,92.914c0,51.638 40.775,93.513 91.075,93.513l333.857,0c36.605,0 66.261,-26.481 66.261,-59.162c0,-29.539 -24.246,-54.032 -55.944,-58.448l0,0c0.001,-51.657 -45.393,-99.489 -95.693,-99.489c-1.614,0 1.582,-0.084 0,0c-26.641,1.433 -50.246,14.604 -66.005,34.575"/>
  <line id="svg_5" y2="210.5" y1="210.5" x2="47" x1="26.5" stroke-width="7" stroke-miterlimit="10" stroke-linejoin="round" stroke-linecap="round" stroke="#354F65" fill="none"/>
  <line id="svg_6" y2="200.25" y1="220.75" x2="36.75" x1="36.75" stroke-width="7" stroke-miterlimit="10" stroke-linejoin="round" stroke-linecap="round" stroke="#354F65" fill="none"/>
  <line id="svg_8" y2="108" y1="108" x2="151.5" x1="131" stroke-width="7" stroke-miterlimit="10" stroke-linejoin="round" stroke-linecap="round" stroke="#D8EAEF" fill="none"/>
  <line id="svg_9" y2="97.75" y1="118.25" x2="141.25" x1="141.25" stroke-width="7" stroke-miterlimit="10" stroke-linejoin="round" stroke-linecap="round" stroke="#D8EAEF" fill="none"/>
  <line id="svg_11" y2="151" y1="151" x2="460" x1="439.5" stroke-width="7" stroke-miterlimit="10" stroke-linejoin="round" stroke-linecap="round" stroke="#D8EAEF" fill="none"/>
  <line id="svg_12" y2="140.75" y1="161.25" x2="449.75" x1="449.75" stroke-width="7" stroke-miterlimit="10" stroke-linejoin="round" stroke-linecap="round" stroke="#D8EAEF" fill="none"/>
  <line id="svg_14" y2="268" y1="268" x2="469" x1="448.5" stroke-width="7" stroke-miterlimit="10" stroke-linejoin="round" stroke-linecap="round" stroke="#354F65" fill="none"/>
  <line id="svg_15" y2="257.75" y1="278.25" x2="458.75" x1="458.75" stroke-width="7" stroke-miterlimit="10" stroke-linejoin="round" stroke-linecap="round" stroke="#354F65" fill="none"/>
  <path id="svg_16" fill="#D8EAEF" d="m412.881,43.308c-22.223,23.661 -29.339,61.234 -16.795,99.672c12.955,39.707 41.99,66.799 75.078,71.564c-47.454,15.663 -100.183,-9.5 -115.846,-56.953c-15.662,-47.454 10.109,-98.621 57.563,-114.283z"/>
  <path id="svg_17" fill="#FFFFFF" d="m392.713,52.837c-22.223,23.661 -31.171,51.706 -18.627,90.144c12.955,39.708 41.99,66.799 75.078,71.565c-38.215,17.954 -82.664,-17.046 -95.846,-53.955c-13.321,-37.299 -2.584,-83.341 39.395,-107.754z"/>
  <path id="svg_18" stroke-width="13" stroke-miterlimit="10" stroke-linejoin="round" stroke-linecap="round" stroke="#354F65" fill="none" d="m412.881,43.308c-22.223,23.662 -29.339,61.235 -16.795,99.673c12.955,39.706 41.99,66.798 75.078,71.563c-47.454,15.664 -100.183,-9.499 -115.846,-56.953c-15.662,-47.453 10.109,-98.62 57.563,-114.283z"/>
  <line id="svg_20" y2="87.5" y1="87.5" x2="293.589" x1="273.089" stroke-width="7" stroke-miterlimit="10" stroke-linejoin="round" stroke-linecap="round" stroke="#354F65" fill="none"/>
  <line id="svg_21" y2="77.25" y1="97.75" x2="283.339" x1="283.339" stroke-width="7" stroke-miterlimit="10" stroke-linejoin="round" stroke-linecap="round" stroke="#354F65" fill="none"/>
 </g>
</svg>